<svg width="24" height="27" viewBox="0 0 24 27" fill="none" xmlns="http://www.w3.org/2000/svg">
<g filter="url(#filter0_d_5_102)">
<path d="M18.6668 17.5V15.8333C18.6668 14.9493 18.3156 14.1014 17.6905 13.4763C17.0654 12.8512 16.2176 12.5 15.3335 12.5H8.66683C7.78277 12.5 6.93493 12.8512 6.30981 13.4763C5.68469 14.1014 5.3335 14.9493 5.3335 15.8333V17.5" stroke="#212121" stroke-width="1.33333" stroke-linecap="round" stroke-linejoin="round"/>
<path d="M11.9998 9.16667C13.8408 9.16667 15.3332 7.67428 15.3332 5.83333C15.3332 3.99238 13.8408 2.5 11.9998 2.5C10.1589 2.5 8.6665 3.99238 8.6665 5.83333C8.6665 7.67428 10.1589 9.16667 11.9998 9.16667Z" stroke="#212121" stroke-width="1.33333" stroke-linecap="round" stroke-linejoin="round"/>
</g>
<defs>
<filter id="filter0_d_5_102" x="-2" y="0" width="28" height="28" filterUnits="userSpaceOnUse" color-interpolation-filters="sRGB">
<feFlood flood-opacity="0" result="BackgroundImageFix"/>
<feColorMatrix in="SourceAlpha" type="matrix" values="0 0 0 0 0 0 0 0 0 0 0 0 0 0 0 0 0 0 127 0" result="hardAlpha"/>
<feOffset dy="4"/>
<feGaussianBlur stdDeviation="2"/>
<feComposite in2="hardAlpha" operator="out"/>
<feColorMatrix type="matrix" values="0 0 0 0 0 0 0 0 0 0 0 0 0 0 0 0 0 0 0.25 0"/>
<feBlend mode="normal" in2="BackgroundImageFix" result="effect1_dropShadow_5_102"/>
<feBlend mode="normal" in="SourceGraphic" in2="effect1_dropShadow_5_102" result="shape"/>
</filter>
</defs>
</svg>
